<?xml version="1.0" encoding="UTF-8" standalone="no"?>
<svg
   xmlns:dc="http://purl.org/dc/elements/1.1/"
   xmlns:cc="http://creativecommons.org/ns#"
   xmlns:rdf="http://www.w3.org/1999/02/22-rdf-syntax-ns#"
   xmlns:svg="http://www.w3.org/2000/svg"
   xmlns="http://www.w3.org/2000/svg"
   xmlns:sodipodi="http://sodipodi.sourceforge.net/DTD/sodipodi-0.dtd"
   xmlns:inkscape="http://www.inkscape.org/namespaces/inkscape"
   width="191.48471mm"
   height="90.115562mm"
   viewBox="0 0 191.48471 90.115563"
   version="1.1"
   id="svg2577"
   inkscape:version="1.0.2-2 (e86c870879, 2021-01-15)"
   sodipodi:docname="logo.svg">
  <defs
     id="defs2571">
    <rect
       x="-94.689934"
       y="244.46672"
       width="373.59167"
       height="103.71667"
       id="rect3873" />
    <rect
       x="41.331188"
       y="158.77939"
       width="209.02083"
       height="73.818748"
       id="rect3713" />
    <rect
       x="98.266144"
       y="172.69955"
       width="65.387489"
       height="29.185831"
       id="rect3634" />
    <rect
       x="80.399178"
       y="151.55855"
       width="88.960663"
       height="21.515198"
       id="rect3628" />
    <rect
       x="7.7361822"
       y="184.75722"
       width="131.17941"
       height="40.395836"
       id="rect1505-4-4-0-3" />
    <rect
       x="7.7361822"
       y="184.75722"
       width="131.17941"
       height="40.395836"
       id="rect2547" />
    <rect
       x="88.466209"
       y="218.22557"
       width="54.656616"
       height="18.976135"
       id="rect1869-0-5" />
    <rect
       x="88.466209"
       y="218.22557"
       width="54.656616"
       height="18.976135"
       id="rect2550" />
    <rect
       x="7.7361822"
       y="184.75722"
       width="131.17941"
       height="40.395836"
       id="rect1505-4-4-0-3-2" />
    <rect
       x="7.7361822"
       y="184.75722"
       width="131.17941"
       height="40.395836"
       id="rect3286" />
    <rect
       x="88.466209"
       y="218.22557"
       width="54.656616"
       height="18.976135"
       id="rect1869-0-5-5" />
    <rect
       x="88.466209"
       y="218.22557"
       width="54.656616"
       height="18.976135"
       id="rect3289" />
  </defs>
  <sodipodi:namedview
     id="base"
     pagecolor="#ffffff"
     bordercolor="#666666"
     borderopacity="1.0"
     inkscape:pageopacity="0.0"
     inkscape:pageshadow="2"
     inkscape:zoom="1.4142136"
     inkscape:cx="-108.75878"
     inkscape:cy="149.1563"
     inkscape:document-units="mm"
     inkscape:current-layer="layer1"
     inkscape:document-rotation="0"
     showgrid="false"
     fit-margin-top="0"
     fit-margin-left="0"
     fit-margin-right="0"
     fit-margin-bottom="0"
     inkscape:window-width="3840"
     inkscape:window-height="2093"
     inkscape:window-x="3831"
     inkscape:window-y="-9"
     inkscape:window-maximized="1" />
  <metadata
     id="metadata2574">
    <rdf:RDF>
      <cc:Work
         rdf:about="">
        <dc:format>image/svg+xml</dc:format>
        <dc:type
           rdf:resource="http://purl.org/dc/dcmitype/StillImage" />
        <dc:title />
      </cc:Work>
    </rdf:RDF>
  </metadata>
  <g
     inkscape:label="Ebene 1"
     inkscape:groupmode="layer"
     id="layer1"
     transform="translate(47.256867,-179.90839)">
    <g
       id="g3912"
       transform="translate(3.6481211)">
      <g
         id="g3674"
         transform="translate(-62.40254,85.074379)">
        <path
           id="path3518"
           style="color:#000000;font-style:normal;font-variant:normal;font-weight:normal;font-stretch:normal;font-size:medium;line-height:normal;font-family:sans-serif;font-variant-ligatures:normal;font-variant-position:normal;font-variant-caps:normal;font-variant-numeric:normal;font-variant-alternates:normal;font-variant-east-asian:normal;font-feature-settings:normal;font-variation-settings:normal;text-indent:0;text-align:start;text-decoration:none;text-decoration-line:none;text-decoration-style:solid;text-decoration-color:#000000;letter-spacing:normal;word-spacing:normal;text-transform:none;writing-mode:lr-tb;direction:ltr;text-orientation:mixed;dominant-baseline:auto;baseline-shift:baseline;text-anchor:start;white-space:normal;shape-padding:0;shape-margin:0;inline-size:0;clip-rule:nonzero;display:inline;overflow:visible;visibility:visible;isolation:auto;mix-blend-mode:normal;color-interpolation:sRGB;color-interpolation-filters:linearRGB;solid-color:#000000;solid-opacity:1;vector-effect:none;fill:#003056;fill-opacity:1;fill-rule:nonzero;stroke:none;stroke-width:2.17477;stroke-linecap:butt;stroke-linejoin:miter;stroke-miterlimit:4;stroke-dasharray:none;stroke-dashoffset:0;stroke-opacity:1;color-rendering:auto;image-rendering:auto;shape-rendering:auto;text-rendering:auto;enable-background:accumulate;stop-color:#000000"
           d="m 424.70312,534.58984 -41.9375,0.10352 -12.3125,7.58008 v 7.08008 h 67.52149 v -6.85938 z"
           transform="scale(0.26458333)" />
        <path
           id="path3524"
           style="color:#000000;font-style:normal;font-variant:normal;font-weight:normal;font-stretch:normal;font-size:medium;line-height:normal;font-family:sans-serif;font-variant-ligatures:normal;font-variant-position:normal;font-variant-caps:normal;font-variant-numeric:normal;font-variant-alternates:normal;font-variant-east-asian:normal;font-feature-settings:normal;font-variation-settings:normal;text-indent:0;text-align:start;text-decoration:none;text-decoration-line:none;text-decoration-style:solid;text-decoration-color:#000000;letter-spacing:normal;word-spacing:normal;text-transform:none;writing-mode:lr-tb;direction:ltr;text-orientation:mixed;dominant-baseline:auto;baseline-shift:baseline;text-anchor:start;white-space:normal;shape-padding:0;shape-margin:0;inline-size:0;clip-rule:nonzero;display:inline;overflow:visible;visibility:visible;isolation:auto;mix-blend-mode:normal;color-interpolation:sRGB;color-interpolation-filters:linearRGB;solid-color:#000000;solid-opacity:1;vector-effect:none;fill:#003056;fill-opacity:1;fill-rule:nonzero;stroke:none;stroke-width:2.17477;stroke-linecap:butt;stroke-linejoin:miter;stroke-miterlimit:4;stroke-dasharray:none;stroke-dashoffset:0;stroke-opacity:1;color-rendering:auto;image-rendering:auto;shape-rendering:auto;text-rendering:auto;enable-background:accumulate;stop-color:#000000"
           d="m 407.46094,442.25781 c -0.99026,0.59275 -2.14394,0.93555 -3.37696,0.93555 -1.17199,0 -2.27328,-0.3107 -3.23046,-0.84961 -0.21726,0.68774 -0.40513,1.41973 -0.54883,2.16406 -0.42727,2.21376 -0.53776,4.36791 -0.57031,5.60938 h 8.88085 c -0.0363,-1.24144 -0.15289,-3.39552 -0.58203,-5.60938 -0.15016,-0.77473 -0.3433,-1.5386 -0.57226,-2.25 z"
           transform="scale(0.26458333)"
           sodipodi:nodetypes="cscsccsc" />
        <path
           id="path3530"
           style="color:#000000;font-style:normal;font-variant:normal;font-weight:normal;font-stretch:normal;font-size:medium;line-height:normal;font-family:sans-serif;font-variant-ligatures:normal;font-variant-position:normal;font-variant-caps:normal;font-variant-numeric:normal;font-variant-alternates:normal;font-variant-east-asian:normal;font-feature-settings:normal;font-variation-settings:normal;text-indent:0;text-align:start;text-decoration:none;text-decoration-line:none;text-decoration-style:solid;text-decoration-color:#000000;letter-spacing:normal;word-spacing:normal;text-transform:none;writing-mode:lr-tb;direction:ltr;text-orientation:mixed;dominant-baseline:auto;baseline-shift:baseline;text-anchor:start;white-space:normal;shape-padding:0;shape-margin:0;inline-size:0;clip-rule:nonzero;display:inline;overflow:visible;visibility:visible;isolation:auto;mix-blend-mode:normal;color-interpolation:sRGB;color-interpolation-filters:linearRGB;solid-color:#000000;solid-opacity:1;vector-effect:none;fill:#003056;fill-opacity:1;fill-rule:nonzero;stroke:none;stroke-width:2.17477;stroke-linecap:butt;stroke-linejoin:miter;stroke-miterlimit:4;stroke-dasharray:none;stroke-dashoffset:0;stroke-opacity:1;color-rendering:auto;image-rendering:auto;shape-rendering:auto;text-rendering:auto;enable-background:accumulate;stop-color:#000000"
           d="m 399.66992,452.28906 -1.70312,43.84766 -0.008,0.1543 -4.46679,13.35546 -0.0449,2.95704 c 0.65543,-0.0972 1.33125,-0.1708 2.04492,-0.18946 2.52933,-0.0661 5.33239,0.4186 7.64843,1.96485 1.50985,1.23917 3.14117,2.77469 4.27344,4.2207 1.03113,1.32227 2.06459,2.58965 4.55469,4.20898 1.61821,1.05238 3.19174,1.27842 4.79492,1.27344 -0.0112,-1.49851 -0.0205,-2.95574 -0.0332,-4.63281 -0.0378,-4.90352 -0.0805,-9.5735 -0.082,-9.77344 l -5.69141,-13.33203 -2.26562,-44.05469 z"
           transform="scale(0.26458333)" />
        <path
           id="path3536"
           style="color:#000000;font-style:normal;font-variant:normal;font-weight:normal;font-stretch:normal;font-size:medium;line-height:normal;font-family:sans-serif;font-variant-ligatures:normal;font-variant-position:normal;font-variant-caps:normal;font-variant-numeric:normal;font-variant-alternates:normal;font-variant-east-asian:normal;font-feature-settings:normal;font-variation-settings:normal;text-indent:0;text-align:start;text-decoration:none;text-decoration-line:none;text-decoration-style:solid;text-decoration-color:#000000;letter-spacing:normal;word-spacing:normal;text-transform:none;writing-mode:lr-tb;direction:ltr;text-orientation:mixed;dominant-baseline:auto;baseline-shift:baseline;text-anchor:start;white-space:normal;shape-padding:0;shape-margin:0;inline-size:0;clip-rule:nonzero;display:inline;overflow:visible;visibility:visible;isolation:auto;mix-blend-mode:normal;color-interpolation:sRGB;color-interpolation-filters:linearRGB;solid-color:#000000;solid-opacity:1;vector-effect:none;fill:#003056;fill-opacity:1;fill-rule:nonzero;stroke:none;stroke-width:2.17477;stroke-linecap:butt;stroke-linejoin:miter;stroke-miterlimit:4;stroke-dasharray:none;stroke-dashoffset:0;stroke-opacity:1;paint-order:markers fill stroke;color-rendering:auto;image-rendering:auto;shape-rendering:auto;text-rendering:auto;enable-background:accumulate;stop-color:#000000"
           d="m 395.54297,514.5918 c -2.20101,0.0576 -4.23663,0.66845 -5.09961,1.22461 -0.82099,0.52909 -1.75165,1.8789 -2.26563,3.35156 -0.51401,1.47269 -0.58651,3.05612 -0.28906,3.81641 0.59256,1.51419 0.40787,3.16345 -0.15429,4.61328 -0.56217,1.44982 -1.50313,2.74133 -2.70899,3.5664 -0.84582,0.5799 -0.66573,0.84528 -0.82031,1.3418 l 40.20117,-0.0957 c 0.18935,-0.22398 0.61617,-0.66685 0.92383,-1.57227 0.37391,-1.10094 0.48421,-2.26564 -0.97461,-3.63867 -0.69887,-0.65775 -1.40367,-0.92788 -2.28906,-1.04883 -0.88543,-0.12019 -1.93886,-0.0489 -3.11524,0.0312 -2.35275,0.16048 -5.26879,0.33207 -8.16406,-1.55078 -2.70463,-1.75884 -4.03242,-3.33434 -5.09375,-4.69531 -1.06129,-1.36101 -1.83532,-2.46258 -3.76367,-3.75 -1.80541,-1.20533 -4.18571,-1.6512 -6.38672,-1.59375 z"
           transform="scale(0.26458333)" />
        <path
           id="path3542"
           style="color:#000000;font-style:normal;font-variant:normal;font-weight:normal;font-stretch:normal;font-size:medium;line-height:normal;font-family:sans-serif;font-variant-ligatures:normal;font-variant-position:normal;font-variant-caps:normal;font-variant-numeric:normal;font-variant-alternates:normal;font-variant-east-asian:normal;font-feature-settings:normal;font-variation-settings:normal;text-indent:0;text-align:start;text-decoration:none;text-decoration-line:none;text-decoration-style:solid;text-decoration-color:#000000;letter-spacing:normal;word-spacing:normal;text-transform:none;writing-mode:lr-tb;direction:ltr;text-orientation:mixed;dominant-baseline:auto;baseline-shift:baseline;text-anchor:start;white-space:normal;shape-padding:0;shape-margin:0;inline-size:0;clip-rule:nonzero;display:inline;overflow:visible;visibility:visible;isolation:auto;mix-blend-mode:normal;color-interpolation:sRGB;color-interpolation-filters:linearRGB;solid-color:#000000;solid-opacity:1;vector-effect:none;fill:#003056;fill-opacity:1;fill-rule:nonzero;stroke:none;stroke-width:2.17477;stroke-linecap:butt;stroke-linejoin:miter;stroke-miterlimit:4;stroke-dasharray:none;stroke-dashoffset:0;stroke-opacity:1;paint-order:markers fill stroke;color-rendering:auto;image-rendering:auto;shape-rendering:auto;text-rendering:auto;enable-background:accumulate;stop-color:#000000"
           d="m 404.08398,432.10547 c -2.4726,0 -4.45117,1.98638 -4.45117,4.45898 0,2.47261 1.97857,4.45117 4.45117,4.45117 2.47261,0 4.45899,-1.97856 4.45899,-4.45117 0,-2.4726 -1.98638,-4.45898 -4.45899,-4.45898 z"
           transform="scale(0.26458333)" />
        <g
           aria-label="dpsg"
           transform="matrix(1.8559948,0,0,1.8559948,95.696403,-229.56207)"
           id="text1503-1-4-1"
           style="font-style:normal;font-variant:normal;font-weight:bold;font-stretch:normal;font-size:11.3045px;line-height:1.25;font-family:'Myriad Pro';-inkscape-font-specification:'Myriad Pro, Bold';font-variant-ligatures:normal;font-variant-caps:normal;font-variant-numeric:normal;font-variant-east-asian:normal;white-space:pre;shape-inside:url(#rect1505-4-4-0-3-2);fill:#003056;fill-opacity:1;stroke:none">
          <path
             d="m 12.065951,186.62305 v 2.98439 h -0.02261 c -0.248699,-0.37305 -0.768705,-0.62174 -1.45828,-0.62174 -1.3226264,0 -2.4869899,1.08523 -2.4756854,2.95047 0,1.71828 1.0513185,2.83743 2.3626404,2.83743 0.712184,0 1.390453,-0.31653 1.729588,-0.92697 h 0.03391 l 0.06783,0.80262 h 1.526107 c -0.02261,-0.37305 -0.04522,-1.02871 -0.04522,-1.65046 v -6.37574 z m 0,5.56182 c 0,0.13565 -0.0113,0.27131 -0.03391,0.39566 -0.101741,0.48609 -0.508703,0.82522 -1.0061,0.82522 -0.712184,0 -1.1756684,-0.58783 -1.1756684,-1.5261 0,-0.87045 0.3956574,-1.57133 1.1869724,-1.57133 0.531311,0 0.90436,0.38435 1.0061,0.83653 0.02261,0.10175 0.02261,0.22609 0.02261,0.31653 z"
             style="font-style:normal;font-variant:normal;font-weight:bold;font-stretch:normal;font-size:11.3045px;font-family:'Myriad Pro';-inkscape-font-specification:'Myriad Pro, Bold';font-variant-ligatures:normal;font-variant-caps:normal;font-variant-numeric:normal;font-variant-east-asian:normal;fill:#003056;fill-opacity:1"
             id="path3598" />
          <path
             d="m 15.16337,196.88754 h 1.718284 v -2.74699 h 0.02261 c 0.248699,0.36174 0.768706,0.63305 1.435672,0.63305 1.23219,0 2.509599,-0.94958 2.509599,-2.96178 0,-1.7635 -1.085232,-2.81482 -2.294814,-2.81482 -0.802619,0 -1.435671,0.31653 -1.842633,0.89306 h -0.02261 l -0.07913,-0.76871 h -1.492194 c 0.02261,0.52001 0.04522,1.13045 0.04522,1.85394 z m 1.718284,-5.36964 c 0,-0.10174 0.01131,-0.21478 0.03391,-0.30522 0.113045,-0.5087 0.542616,-0.87044 1.028709,-0.87044 0.768706,0 1.164364,0.66696 1.164364,1.54871 0,0.93828 -0.440876,1.56002 -1.186973,1.56002 -0.497398,0 -0.893055,-0.35044 -1.0061,-0.81392 -0.02261,-0.11305 -0.03391,-0.22609 -0.03391,-0.36175 z"
             style="font-style:normal;font-variant:normal;font-weight:bold;font-stretch:normal;font-size:11.3045px;font-family:'Myriad Pro';-inkscape-font-specification:'Myriad Pro, Bold';font-variant-ligatures:normal;font-variant-caps:normal;font-variant-numeric:normal;font-variant-east-asian:normal;fill:#003056;fill-opacity:1"
             id="path3600" />
          <path
             d="m 21.60693,194.37794 c 0.418267,0.22609 1.062623,0.39566 1.786111,0.39566 1.58263,0 2.38525,-0.7574 2.38525,-1.79742 -0.01131,-0.80262 -0.440876,-1.34523 -1.492194,-1.70698 -0.67827,-0.23739 -0.893056,-0.37304 -0.893056,-0.64435 0,-0.27131 0.237395,-0.44088 0.655661,-0.44088 0.463485,0 0.949578,0.18087 1.198277,0.31653 l 0.293917,-1.18697 c -0.339135,-0.16957 -0.90436,-0.32783 -1.548716,-0.32783 -1.367845,0 -2.249596,0.78001 -2.249596,1.82002 -0.0113,0.65566 0.429571,1.27741 1.58263,1.66176 0.633052,0.21479 0.80262,0.35044 0.80262,0.64436 0,0.28261 -0.214786,0.45218 -0.734793,0.45218 -0.508702,0 -1.164363,-0.21479 -1.480889,-0.40696 z"
             style="font-style:normal;font-variant:normal;font-weight:bold;font-stretch:normal;font-size:11.3045px;font-family:'Myriad Pro';-inkscape-font-specification:'Myriad Pro, Bold';font-variant-ligatures:normal;font-variant-caps:normal;font-variant-numeric:normal;font-variant-east-asian:normal;fill:#003056;fill-opacity:1"
             id="path3602" />
          <path
             d="m 32.063571,190.77181 c 0,-0.82523 0.02261,-1.28872 0.04522,-1.65046 h -1.492194 l -0.05652,0.66696 h -0.02261 c -0.282612,-0.46348 -0.757401,-0.79131 -1.514803,-0.79131 -1.367844,0 -2.509599,1.13045 -2.509599,2.91656 0,1.58263 0.972187,2.69047 2.340032,2.69047 0.633052,0 1.164363,-0.26 1.492194,-0.71218 h 0.02261 v 0.35044 c 0,1.02871 -0.621748,1.45828 -1.435672,1.45828 -0.655661,0 -1.254799,-0.21479 -1.605239,-0.41827 l -0.339135,1.31132 c 0.497398,0.27131 1.2548,0.41827 1.989592,0.41827 0.813924,0 1.639153,-0.15826 2.238291,-0.67827 0.633052,-0.55392 0.847838,-1.42437 0.847838,-2.48699 z m -1.718284,1.41306 c 0,0.14696 -0.01131,0.32783 -0.05652,0.46348 -0.113045,0.39566 -0.463484,0.68958 -0.915664,0.68958 -0.712184,0 -1.119146,-0.64436 -1.119146,-1.46959 0,-1.0061 0.497398,-1.57132 1.13045,-1.57132 0.474789,0 0.80262,0.30522 0.926969,0.7574 0.02261,0.10174 0.03391,0.21478 0.03391,0.31652 z"
             style="font-style:normal;font-variant:normal;font-weight:bold;font-stretch:normal;font-size:11.3045px;font-family:'Myriad Pro';-inkscape-font-specification:'Myriad Pro, Bold';font-variant-ligatures:normal;font-variant-caps:normal;font-variant-numeric:normal;font-variant-east-asian:normal;fill:#003056;fill-opacity:1"
             id="path3604" />
        </g>
        <g
           aria-label="Ottobrunn"
           transform="matrix(0.97103755,0,0,1.1054827,32.777696,-106.13904)"
           id="text1867-9-4"
           style="font-style:normal;font-variant:normal;font-weight:bold;font-stretch:condensed;font-size:10.5833px;line-height:1.25;font-family:'Myriad Pro';-inkscape-font-specification:'Myriad Pro, Bold Condensed';font-variant-ligatures:normal;font-variant-caps:normal;font-variant-numeric:normal;font-variant-east-asian:normal;white-space:pre;shape-inside:url(#rect1869-0-5-5);fill:#003056;fill-opacity:1;stroke:none">
          <path
             d="m 91.091455,220.26719 c -1.587495,0 -2.360076,1.68274 -2.360076,3.63007 0,1.95791 0.634998,3.6724 2.254243,3.6724 1.354663,0 2.30716,-1.09008 2.30716,-3.77824 0,-1.62982 -0.486832,-3.52423 -2.201327,-3.52423 z m -0.0635,1.20649 c 0.634998,0 0.825498,1.13242 0.825498,2.38124 0,1.44992 -0.22225,2.50825 -0.814914,2.50825 -0.560915,0 -0.867831,-0.8255 -0.867831,-2.44475 0,-1.53457 0.306916,-2.44474 0.857247,-2.44474 z"
             style="font-style:normal;font-variant:normal;font-weight:bold;font-stretch:condensed;font-size:10.5833px;font-family:'Myriad Pro';-inkscape-font-specification:'Myriad Pro, Bold Condensed';font-variant-ligatures:normal;font-variant-caps:normal;font-variant-numeric:normal;font-variant-east-asian:normal;fill:#003056;fill-opacity:1"
             id="path3607" />
          <path
             d="m 94.456922,221.3996 v 0.91016 H 93.84309 v 0.98425 h 0.613832 v 2.44474 c 0,0.81492 0.158749,1.2065 0.433915,1.48166 0.253999,0.23284 0.603248,0.32809 1.005414,0.32809 0.359832,0 0.656164,-0.0423 0.846663,-0.0952 l -0.01058,-1.0795 c -0.126999,0.0212 -0.232832,0.0317 -0.370415,0.0317 -0.264583,0 -0.518582,-0.14817 -0.518582,-0.75141 v -2.36008 h 1.015997 v -0.98425 h -1.015997 v -1.34408 z"
             style="font-style:normal;font-variant:normal;font-weight:bold;font-stretch:condensed;font-size:10.5833px;font-family:'Myriad Pro';-inkscape-font-specification:'Myriad Pro, Bold Condensed';font-variant-ligatures:normal;font-variant-caps:normal;font-variant-numeric:normal;font-variant-east-asian:normal;fill:#003056;fill-opacity:1"
             id="path3609" />
          <path
             d="m 97.748316,221.3996 v 0.91016 h -0.613831 v 0.98425 h 0.613831 v 2.44474 c 0,0.81492 0.158749,1.2065 0.433915,1.48166 0.253999,0.23284 0.603248,0.32809 1.005414,0.32809 0.359832,0 0.656164,-0.0423 0.846665,-0.0952 l -0.0106,-1.0795 c -0.127004,0.0212 -0.232837,0.0317 -0.37042,0.0317 -0.264583,0 -0.518582,-0.14817 -0.518582,-0.75141 v -2.36008 h 1.016002 v -0.98425 h -1.016002 v -1.34408 z"
             style="font-style:normal;font-variant:normal;font-weight:bold;font-stretch:condensed;font-size:10.5833px;font-family:'Myriad Pro';-inkscape-font-specification:'Myriad Pro, Bold Condensed';font-variant-ligatures:normal;font-variant-caps:normal;font-variant-numeric:normal;font-variant-east-asian:normal;fill:#003056;fill-opacity:1"
             id="path3611" />
          <path
             d="m 102.55312,222.21451 c -1.02658,0 -2.00025,0.83608 -2.00025,2.69874 0,1.68275 0.74083,2.65641 1.97908,2.65641 0.78317,0 1.97908,-0.52916 1.97908,-2.68816 0,-1.64041 -0.73025,-2.66699 -1.95791,-2.66699 z m -0.0106,1.05833 c 0.47625,0 0.59267,0.89958 0.59267,1.60866 0,0.762 -0.11642,1.62983 -0.5715,1.62983 -0.49741,0 -0.635,-0.74083 -0.635,-1.62983 0,-0.70908 0.10584,-1.60866 0.61383,-1.60866 z"
             style="font-style:normal;font-variant:normal;font-weight:bold;font-stretch:condensed;font-size:10.5833px;font-family:'Myriad Pro';-inkscape-font-specification:'Myriad Pro, Bold Condensed';font-variant-ligatures:normal;font-variant-caps:normal;font-variant-numeric:normal;font-variant-east-asian:normal;fill:#003056;fill-opacity:1"
             id="path3613" />
          <path
             d="m 105.28361,225.95042 c 0,0.48683 -0.0212,1.07949 -0.0423,1.53458 h 1.18533 l 0.0741,-0.61383 h 0.0317 c 0.27516,0.51858 0.58208,0.69849 1.01599,0.69849 0.96308,0 1.68275,-0.99483 1.68275,-2.81515 0,-1.397 -0.46567,-2.54 -1.4605,-2.54 -0.49741,0 -0.83608,0.24342 -1.07949,0.61383 h -0.0212 v -2.66699 h -1.38641 z m 1.38641,-1.76741 c 0,-0.0952 0.0212,-0.23284 0.0529,-0.3175 0.0741,-0.254 0.25399,-0.47625 0.46566,-0.47625 0.46567,0 0.66675,0.5715 0.66675,1.47108 0,0.99483 -0.1905,1.57691 -0.65617,1.57691 -0.16933,0 -0.35983,-0.10583 -0.47624,-0.47625 -0.0317,-0.0741 -0.0529,-0.20108 -0.0529,-0.32808 z"
             style="font-style:normal;font-variant:normal;font-weight:bold;font-stretch:condensed;font-size:10.5833px;font-family:'Myriad Pro';-inkscape-font-specification:'Myriad Pro, Bold Condensed';font-variant-ligatures:normal;font-variant-caps:normal;font-variant-numeric:normal;font-variant-east-asian:normal;fill:#003056;fill-opacity:1"
             id="path3615" />
          <path
             d="m 110.02491,227.485 h 1.38641 v -2.63525 c 0,-0.21166 0.0212,-0.40216 0.0635,-0.51858 0.14817,-0.52916 0.53975,-0.73024 0.83608,-0.73024 0.11642,0 0.21167,0 0.29634,0.0106 v -1.36525 c -0.0741,-0.0212 -0.14817,-0.0318 -0.29634,-0.0318 -0.37041,0 -0.79374,0.29634 -1.01599,0.84667 h -0.0423 l -0.0741,-0.75142 h -1.19591 c 0.0212,0.48683 0.0423,1.04775 0.0423,1.55575 z"
             style="font-style:normal;font-variant:normal;font-weight:bold;font-stretch:condensed;font-size:10.5833px;font-family:'Myriad Pro';-inkscape-font-specification:'Myriad Pro, Bold Condensed';font-variant-ligatures:normal;font-variant-caps:normal;font-variant-numeric:normal;font-variant-east-asian:normal;fill:#003056;fill-opacity:1"
             id="path3617" />
          <path
             d="m 116.92521,222.30976 h -1.38641 v 3.30199 c 0,0.17992 -0.0317,0.33867 -0.0847,0.4445 -0.0635,0.16933 -0.21167,0.34925 -0.45508,0.34925 -0.381,0 -0.51858,-0.43392 -0.51858,-1.11125 v -2.98449 h -1.38642 v 3.13266 c 0,1.397 0.39159,2.12724 1.37583,2.12724 0.53975,0 0.96308,-0.28575 1.2065,-0.635 h 0.0212 l 0.0741,0.55034 h 1.19591 c -0.0212,-0.48684 -0.0423,-1.02658 -0.0423,-1.57692 z"
             style="font-style:normal;font-variant:normal;font-weight:bold;font-stretch:condensed;font-size:10.5833px;font-family:'Myriad Pro';-inkscape-font-specification:'Myriad Pro, Bold Condensed';font-variant-ligatures:normal;font-variant-caps:normal;font-variant-numeric:normal;font-variant-east-asian:normal;fill:#003056;fill-opacity:1"
             id="path3619" />
          <path
             d="m 117.92003,227.485 h 1.38642 v -3.15383 c 0,-0.20108 0.0318,-0.37041 0.0741,-0.47625 0.0953,-0.30691 0.28575,-0.46566 0.51858,-0.46566 0.40217,0 0.508,0.42333 0.508,0.85725 v 3.23849 h 1.38641 v -3.32316 c 0,-1.15358 -0.39158,-1.93674 -1.37583,-1.93674 -0.53975,0 -0.98424,0.27516 -1.24883,0.67733 h -0.0212 l -0.0741,-0.59267 h -1.19591 c 0.0212,0.49742 0.0423,0.99483 0.0423,1.55575 z"
             style="font-style:normal;font-variant:normal;font-weight:bold;font-stretch:condensed;font-size:10.5833px;font-family:'Myriad Pro';-inkscape-font-specification:'Myriad Pro, Bold Condensed';font-variant-ligatures:normal;font-variant-caps:normal;font-variant-numeric:normal;font-variant-east-asian:normal;fill:#003056;fill-opacity:1"
             id="path3621" />
          <path
             d="m 122.76717,227.485 h 1.38641 v -3.15383 c 0,-0.20108 0.0317,-0.37041 0.0741,-0.47625 0.0952,-0.30691 0.28575,-0.46566 0.51858,-0.46566 0.40217,0 0.508,0.42333 0.508,0.85725 v 3.23849 h 1.38641 v -3.32316 c 0,-1.15358 -0.39158,-1.93674 -1.37583,-1.93674 -0.53974,0 -0.98424,0.27516 -1.24882,0.67733 h -0.0212 l -0.0741,-0.59267 h -1.19592 c 0.0212,0.49742 0.0423,0.99483 0.0423,1.55575 z"
             style="font-style:normal;font-variant:normal;font-weight:bold;font-stretch:condensed;font-size:10.5833px;font-family:'Myriad Pro';-inkscape-font-specification:'Myriad Pro, Bold Condensed';font-variant-ligatures:normal;font-variant-caps:normal;font-variant-numeric:normal;font-variant-east-asian:normal;fill:#003056;fill-opacity:1"
             id="path3623" />
        </g>
        <path
           id="path1719-7"
           style="clip-rule:evenodd;opacity:1;fill:#810a1a;fill-opacity:1;fill-rule:evenodd;stroke:none;stroke-width:0.162039;image-rendering:optimizeQuality;shape-rendering:geometricPrecision;text-rendering:geometricPrecision"
           d="m 95.740409,114.67052 c -0.625443,0.0317 -1.08867,0.67329 -0.908944,1.27638 0.05442,0.81684 0.108836,1.63368 0.163253,2.45052 l -6.384107,0.0651 c -1.037146,1.06954 -2.074294,2.13907 -3.111439,3.2086 l 9.884669,0.74517 0.421164,4.53719 c -2.00346,-1.31049 -4.037738,-2.65311 -6.317187,-3.44273 -1.318633,-0.43902 -2.96909,-0.63064 -4.10039,0.34596 -1.168358,1.109 -1.453653,2.79941 -1.589173,4.33527 -0.135866,2.36026 0.159457,4.76108 1.052897,6.96048 0.703633,1.6951 1.663202,3.33542 3.021028,4.58828 0.806117,0.59999 1.925204,0.58408 2.84063,0.27724 1.811301,-0.82565 3.175638,-2.33655 4.671031,-3.60151 0.231301,-0.41614 -0.599001,-0.17206 -0.834446,-0.25689 -0.864952,0.0124 -1.507296,-0.71713 -1.686684,-1.51224 -0.37121,-1.21879 -0.507161,-2.49689 -0.784611,-3.7401 -0.156737,-0.54275 0.464407,-0.50715 0.812649,-0.40153 1.109178,0.29895 2.216555,0.78755 3.088465,1.54759 0.594524,0.44313 0.377973,1.26366 0.520147,1.90057 0.08069,0.35928 -0.09529,1.003 0.483767,0.80999 h 3.391622 c 0.15266,-0.83322 -0.0216,-1.79331 0.5009,-2.51061 1.14389,-1.23263 2.64966,-1.46615 3.9038,-1.87473 0.10665,-1.95731 0.16032,-4.02829 0.22654,-5.73084 -1.34209,0.72163 -2.62599,1.54686 -3.88555,2.40295 l 0.42117,-4.6669 c 1.18752,-0.0887 2.37504,-0.17742 3.56257,-0.26613 0.0532,-1.22358 0.0834,-2.44848 0.15089,-3.67109 -1.10915,-0.006 -2.21829,-0.011 -3.32744,-0.0165 0.0604,-0.98151 0.19258,-1.97175 0.20885,-2.94789 -0.13087,-0.64322 -0.82372,-0.91324 -1.41857,-0.81157 h -4.977501 z"
           sodipodi:nodetypes="cccccccccccccccccccccccccccccccccc" />
        <path
           id="path1721-9"
           mask="none"
           style="clip-rule:evenodd;opacity:1;fill:#810a1a;fill-opacity:1;fill-rule:evenodd;stroke:none;stroke-width:0.162039;image-rendering:optimizeQuality;shape-rendering:geometricPrecision;text-rendering:geometricPrecision"
           d="m 96.744998,136.19014 c -1.58469,2.36721 -3.192989,4.71942 -4.763209,7.09583 -0.0344,0.25315 0.279275,0.29909 0.445389,0.39945 0.469918,0.19108 0.988417,0.35717 1.498354,0.24998 0.553217,-0.38098 0.980498,-0.91401 1.509027,-1.32716 0.237837,-0.1505 0.661392,-0.67282 0.787537,-0.6018 -0.0381,0.8591 -0.122467,1.71687 -0.125121,2.57698 -0.0011,0.16429 0.09642,0.32315 0.280427,0.29197 h 1.090033 v -1.70274 c 1.163063,-0.7164 2.326129,-1.43281 3.489195,-2.14922 0.0683,-0.52843 0.50705,-0.85562 0.87046,-1.18568 0.22304,-0.30509 0.46556,-0.74925 0.1802,-1.10602 -0.56597,-0.84714 -1.13184,-1.69434 -1.69765,-2.54159 z"
           sodipodi:nodetypes="ccccccccccccccc" />
      </g>
      <g
         id="g3869"
         transform="translate(-1.5930886,-1.4286159)">
        <path
           d="m 6.9415049,182.58425 h -7.44184766 l -0.87306684,7.08846 c 0.54046994,-0.0831 1.06015304,-0.12473 1.80849374,-0.12473 2.70234716,0 3.80407356,0.85229 3.80407356,2.24504 0,1.43432 -1.392748,2.05793 -2.7023472,2.05793 -1.22644846,0 -2.45289896,-0.37416 -3.0349442,-0.66519 l -0.5820437,2.36976 c 0.7483432,0.39495 2.12030454,0.76913 3.7624987,0.76913 3.637776,0 5.7996534,-2.22426 5.7996534,-4.73952 0,-1.57983 -0.6236186,-2.70233 -1.6421962,-3.38831 -0.9354269,-0.68598 -2.2658128,-0.97701 -3.5546253,-0.97701 -0.332597,0 -0.5820433,0 -0.8730668,0.0416 l 0.2910235,-2.07873 h 5.238395 z"
           style="font-style:normal;font-variant:normal;font-weight:bold;font-stretch:normal;font-size:10.5833px;line-height:1.25;font-family:'Myriad Pro';-inkscape-font-specification:'Myriad Pro, Bold';font-variant-ligatures:normal;font-variant-caps:normal;font-variant-numeric:normal;font-variant-east-asian:normal;letter-spacing:0px;white-space:pre;fill:#003056;fill-opacity:1;stroke:none;stroke-width:1.96416"
           id="path3727" />
        <path
           id="path3729"
           style="font-style:normal;font-variant:normal;font-weight:bold;font-stretch:normal;font-size:10.5833px;line-height:1.25;font-family:'Myriad Pro';-inkscape-font-specification:'Myriad Pro, Bold';font-variant-ligatures:normal;font-variant-caps:normal;font-variant-numeric:normal;font-variant-east-asian:normal;letter-spacing:0px;white-space:pre;fill:#003056;fill-opacity:1;stroke:none;stroke-width:1.96416"
           d="m 14.404153,182.35573 c -3.492265,0 -5.1345704,3.07647 -5.1345704,7.00526 0.00971,1.78677 0.3506046,3.42338 1.0671174,4.6607 0.06264,-0.1706 0.129532,-0.3415 0.205155,-0.51212 l 0.06408,-0.14211 0.101801,-0.11575 c 0.168039,-0.191 0.368861,-0.53595 0.649573,-0.93948 0.259133,-0.37251 0.622443,-0.81646 1.184423,-1.10691 -0.07271,-0.53505 -0.112654,-1.1462 -0.112654,-1.84433 0,-3.15967 0.789916,-4.61471 1.933215,-4.61471 1.268026,0 1.912546,1.57947 1.912546,4.57285 0,2.07996 -0.305107,3.45416 -0.881084,4.12791 0.33391,-0.17821 0.749827,-0.27546 1.14205,-0.15813 0.521716,0.15606 0.785342,0.52749 0.942579,0.82373 0.154863,0.29159 0.20216,0.55934 0.224274,0.82217 0.201242,-0.21559 0.384913,-0.45374 0.55087,-0.71314 -0.0085,-0.0737 -0.0125,-0.14724 -0.0077,-0.21859 0.04081,-0.61265 0.369565,-0.90963 0.608748,-1.13016 0.01993,-0.0184 0.03954,-0.0341 0.05943,-0.0517 0.346216,-1.01694 0.520899,-2.21433 0.520899,-3.54345 0,-3.70014 -1.434502,-6.92206 -5.0307,-6.92206 z" />
        <path
           id="path3731"
           style="font-style:normal;font-variant:normal;font-weight:bold;font-stretch:normal;font-size:10.5833px;line-height:1.25;font-family:'Myriad Pro';-inkscape-font-specification:'Myriad Pro, Bold';font-variant-ligatures:normal;font-variant-caps:normal;font-variant-numeric:normal;font-variant-east-asian:normal;letter-spacing:0px;white-space:pre;fill:#003056;fill-opacity:1;stroke:none;stroke-width:1.96416"
           d="m 32.634563,182.08546 v 8.83461 c 0,2.16187 -0.831757,2.76468 -2.162143,2.76468 -0.332856,0 -0.645432,-0.0314 -0.933275,-0.0811 0.217051,0.54953 0.363386,1.10301 0.474906,1.63866 0.07853,0.3532 0.120938,0.70375 0.134876,1.05058 0.234043,0.0192 0.464114,0.0315 0.676961,0.0315 3.055731,0 4.968173,-1.39248 4.968173,-5.38365 v -8.85528 z m -3.917074,12.98267 c 0.0051,0.0143 0.0011,0.0256 0.0062,0.0398 0.0071,0.0268 0.02347,0.0491 0.02997,0.076 z" />
        <path
           d="m 46.686683,190.08846 c 0,-2.41134 -1.060155,-4.4069 -4.448487,-4.4069 -1.850061,0 -3.242807,0.51967 -3.94959,0.91463 l 0.582059,2.03716 c 0.665182,-0.41575 1.766918,-0.76914 2.806273,-0.76914 1.559051,0 1.850081,0.76914 1.850081,1.3304 v 0.12473 c -3.596199,0 -5.965957,1.24722 -5.965957,3.8872 0,1.62142 1.226441,3.11811 3.284388,3.11811 1.20566,0 2.245034,-0.43654 2.910217,-1.24724 h 0.06246 l 0.186988,1.01857 h 2.847854 c -0.124724,-0.56126 -0.166364,-1.49669 -0.166364,-2.4529 z m -3.055741,2.30738 c 0,0.18699 -0.02082,0.37417 -0.06246,0.54047 -0.207867,0.64441 -0.873069,1.16408 -1.642194,1.16408 -0.706763,0 -1.247241,-0.39495 -1.247241,-1.20566 0,-1.20566 1.288822,-1.60061 2.951797,-1.60061 z"
           style="font-style:normal;font-variant:normal;font-weight:bold;font-stretch:normal;font-size:10.5833px;line-height:1.25;font-family:'Myriad Pro';-inkscape-font-specification:'Myriad Pro, Bold';font-variant-ligatures:normal;font-variant-caps:normal;font-variant-numeric:normal;font-variant-east-asian:normal;letter-spacing:0px;white-space:pre;fill:#003056;fill-opacity:1;stroke:none;stroke-width:1.96416"
           id="path3733" />
        <path
           d="m 49.201926,196.09598 h 3.159684 v -6.02832 c 0,-0.22865 0.02082,-0.4989 0.103904,-0.68596 0.228668,-0.58206 0.748345,-1.12252 1.579833,-1.12252 1.184879,0 1.642194,0.91463 1.642194,2.24501 v 5.59179 h 3.159684 v -5.92438 c 0,-3.07652 -1.538271,-4.46926 -3.554637,-4.46926 -0.58204,0 -1.164079,0.14554 -1.642195,0.39495 -0.498896,0.24945 -0.91463,0.60284 -1.247241,1.06015 h -0.04164 v -5.82043 h -3.159684 z"
           style="font-style:normal;font-variant:normal;font-weight:bold;font-stretch:normal;font-size:10.5833px;line-height:1.25;font-family:'Myriad Pro';-inkscape-font-specification:'Myriad Pro, Bold';font-variant-ligatures:normal;font-variant-caps:normal;font-variant-numeric:normal;font-variant-east-asian:normal;letter-spacing:0px;white-space:pre;fill:#003056;fill-opacity:1;stroke:none;stroke-width:1.96416"
           id="path3735" />
        <path
           d="m 61.383249,196.09598 h 3.159664 v -5.15525 c 0,-0.24945 0.02082,-0.4989 0.06226,-0.70676 0.207887,-0.977 0.997793,-1.60062 2.161891,-1.60062 0.353372,0 0.60282,0.0416 0.852269,0.0831 v -2.97258 c -0.228648,-0.0416 -0.374173,-0.0623 -0.665183,-0.0623 -0.997792,0 -2.224253,0.62363 -2.74393,2.12029 h -0.08308 l -0.124724,-1.87084 h -2.702349 c 0.06246,0.87307 0.08308,1.85006 0.08308,3.34675 z"
           style="font-style:normal;font-variant:normal;font-weight:bold;font-stretch:normal;font-size:10.5833px;line-height:1.25;font-family:'Myriad Pro';-inkscape-font-specification:'Myriad Pro, Bold';font-variant-ligatures:normal;font-variant-caps:normal;font-variant-numeric:normal;font-variant-east-asian:normal;letter-spacing:0px;white-space:pre;fill:#003056;fill-opacity:1;stroke:none;stroke-width:1.96416"
           id="path3737" />
        <path
           d="m 78.096181,192.02166 c 0.04164,-0.22864 0.103904,-0.70676 0.103904,-1.24722 0,-2.51526 -1.247241,-5.0721 -4.531629,-5.0721 -3.533837,0 -5.13445,2.84785 -5.13445,5.42548 0,3.18046 1.974786,5.17603 5.425479,5.17603 1.371946,0 2.639987,-0.20787 3.679342,-0.64441 l -0.415734,-2.14109 c -0.852288,0.29103 -1.725357,0.43654 -2.806292,0.43654 -1.475889,0 -2.785493,-0.62362 -2.868655,-1.93323 z m -6.568777,-2.16187 c 0.08308,-0.83148 0.623621,-2.05794 1.954005,-2.05794 1.455108,0 1.787699,1.28882 1.787699,2.05794 z"
           style="font-style:normal;font-variant:normal;font-weight:bold;font-stretch:normal;font-size:10.5833px;line-height:1.25;font-family:'Myriad Pro';-inkscape-font-specification:'Myriad Pro, Bold';font-variant-ligatures:normal;font-variant-caps:normal;font-variant-numeric:normal;font-variant-east-asian:normal;letter-spacing:0px;white-space:pre;fill:#003056;fill-opacity:1;stroke:none;stroke-width:1.96416"
           id="path3739" />
        <path
           style="color:#000000;font-style:normal;font-variant:normal;font-weight:bold;font-stretch:normal;font-size:10.5833px;line-height:1.25;font-family:'Segoe Script';-inkscape-font-specification:'Segoe Script, Bold';font-variant-ligatures:normal;font-variant-position:normal;font-variant-caps:normal;font-variant-numeric:normal;font-variant-alternates:normal;font-variant-east-asian:normal;font-feature-settings:normal;font-variation-settings:normal;text-indent:0;text-align:start;text-decoration:none;text-decoration-line:none;text-decoration-style:solid;text-decoration-color:#000000;letter-spacing:-1.32821px;word-spacing:normal;text-transform:none;writing-mode:lr-tb;direction:ltr;text-orientation:mixed;dominant-baseline:auto;baseline-shift:baseline;text-anchor:start;white-space:normal;shape-padding:0;shape-margin:0;inline-size:0;clip-rule:nonzero;display:inline;overflow:visible;visibility:visible;isolation:auto;mix-blend-mode:normal;color-interpolation:sRGB;color-interpolation-filters:linearRGB;solid-color:#000000;solid-opacity:1;vector-effect:none;fill:#810a1a;fill-opacity:1;fill-rule:nonzero;stroke:none;stroke-width:2.02564;stroke-linecap:butt;stroke-linejoin:miter;stroke-miterlimit:4;stroke-dasharray:none;stroke-dashoffset:0;stroke-opacity:1;paint-order:stroke markers fill;color-rendering:auto;image-rendering:auto;shape-rendering:auto;text-rendering:auto;enable-background:accumulate;stop-color:#000000"
           d="m 13.842295,192.34489 c -0.156293,0.69996 -0.76362,1.21277 -1.08197,1.85013 -0.681061,1.30404 -1.203579,2.82675 -0.919425,4.31024 0.31588,0.95486 0.631554,1.90226 1.180928,2.75779 0.394539,0.81604 1.402435,0.97573 1.890639,1.67371 0.107933,0.96627 -1.320601,0.8073 -1.75694,0.25014 -0.854856,-0.59602 -1.524473,-1.43983 -1.835279,-2.44094 -0.563127,-1.37337 -0.98036,-2.90074 -0.585518,-4.37912 0.195746,-0.82619 0.389734,-1.67022 0.733611,-2.44606 0.538846,-0.61246 0.839324,-1.51544 1.62199,-1.86062 0.284793,-0.13152 0.715159,-0.10743 0.751961,0.28472 z"
           id="path3801" />
        <path
           style="color:#000000;font-style:normal;font-variant:normal;font-weight:bold;font-stretch:normal;font-size:10.5833px;line-height:1.25;font-family:'Segoe Script';-inkscape-font-specification:'Segoe Script, Bold';font-variant-ligatures:normal;font-variant-position:normal;font-variant-caps:normal;font-variant-numeric:normal;font-variant-alternates:normal;font-variant-east-asian:normal;font-feature-settings:normal;font-variation-settings:normal;text-indent:0;text-align:start;text-decoration:none;text-decoration-line:none;text-decoration-style:solid;text-decoration-color:#000000;letter-spacing:-1.32821px;word-spacing:normal;text-transform:none;writing-mode:lr-tb;direction:ltr;text-orientation:mixed;dominant-baseline:auto;baseline-shift:baseline;text-anchor:start;white-space:normal;shape-padding:0;shape-margin:0;inline-size:0;clip-rule:nonzero;display:inline;overflow:visible;visibility:visible;isolation:auto;mix-blend-mode:normal;color-interpolation:sRGB;color-interpolation-filters:linearRGB;solid-color:#000000;solid-opacity:1;vector-effect:none;fill:#810a1a;fill-opacity:1;fill-rule:nonzero;stroke:none;stroke-width:2.02564;stroke-linecap:butt;stroke-linejoin:miter;stroke-miterlimit:4;stroke-dasharray:none;stroke-dashoffset:0;stroke-opacity:1;paint-order:stroke markers fill;color-rendering:auto;image-rendering:auto;shape-rendering:auto;text-rendering:auto;enable-background:accumulate;stop-color:#000000"
           d="m 19.517444,196.8611 c -0.458297,0.53112 -1.256611,0.31366 -1.871657,0.50879 -0.700719,-0.065 -0.559067,0.56322 -0.408629,1.06528 0.286836,0.6351 0.141508,1.66074 -0.779734,1.30267 -0.470127,-0.54081 -0.0671,-1.62406 -0.462844,-2.04078 -0.524168,0.0939 -1.03068,0.26514 -1.545432,0.38671 -0.964806,-0.0284 -0.505295,-1.32391 0.307651,-1.07808 0.416238,-0.0644 0.837349,-0.13384 1.240512,-0.25786 -0.01807,-0.78082 -0.639621,-1.56032 -0.258215,-2.32743 0.790174,-0.65673 1.106014,0.67625 1.066654,1.27138 0.041,0.40211 0.03828,1.01157 0.57213,0.74325 0.672375,-0.0589 1.735546,-0.70662 2.116689,0.13284 0.0286,0.098 0.06931,0.19367 0.0228,0.29271 z"
           id="path3807" />
        <path
           style="color:#000000;font-style:normal;font-variant:normal;font-weight:bold;font-stretch:normal;font-size:10.5833px;line-height:1.25;font-family:'Segoe Script';-inkscape-font-specification:'Segoe Script, Bold';font-variant-ligatures:normal;font-variant-position:normal;font-variant-caps:normal;font-variant-numeric:normal;font-variant-alternates:normal;font-variant-east-asian:normal;font-feature-settings:normal;font-variation-settings:normal;text-indent:0;text-align:start;text-decoration:none;text-decoration-line:none;text-decoration-style:solid;text-decoration-color:#000000;letter-spacing:-1.32821px;word-spacing:normal;text-transform:none;writing-mode:lr-tb;direction:ltr;text-orientation:mixed;dominant-baseline:auto;baseline-shift:baseline;text-anchor:start;white-space:normal;shape-padding:0;shape-margin:0;inline-size:0;clip-rule:nonzero;display:inline;overflow:visible;visibility:visible;isolation:auto;mix-blend-mode:normal;color-interpolation:sRGB;color-interpolation-filters:linearRGB;solid-color:#000000;solid-opacity:1;vector-effect:none;fill:#810a1a;fill-opacity:1;fill-rule:nonzero;stroke:none;stroke-width:2.02564;stroke-linecap:butt;stroke-linejoin:miter;stroke-miterlimit:4;stroke-dasharray:none;stroke-dashoffset:0;stroke-opacity:1;paint-order:stroke markers fill;color-rendering:auto;image-rendering:auto;shape-rendering:auto;text-rendering:auto;enable-background:accumulate;stop-color:#000000"
           d="m 26.335728,196.54762 c -0.104077,0.95005 -1.506323,0.92348 -2.184709,1.36919 -0.40735,0.16771 -0.06937,0.94601 -0.819866,0.9186 -0.510499,0.10625 -0.887947,-0.4075 -1.3549,0.16037 -0.588678,0.37617 -2.00412,1.12782 -2.179145,0.003 0.478411,-0.81641 1.59427,-0.85198 2.336824,-1.34351 0.207038,-0.66965 -0.133922,-1.62761 -0.08026,-2.42109 -0.09933,-0.63282 0.07024,-1.82106 -0.167011,-2.12324 -0.681524,0.57691 -1.349708,1.31762 -2.289126,1.41025 -1.030704,-0.58381 0.550846,-1.26076 0.987058,-1.69123 0.669835,-0.51556 1.225148,-1.18446 1.953658,-1.61652 1.183535,0.0805 0.559189,1.43189 0.669326,2.18746 1.33e-4,1.23095 0.0531,2.46741 0.318683,3.67328 0.84231,-0.32664 1.599484,-0.88006 2.513817,-1.00339 0.107381,0.1514 0.253544,0.29032 0.295653,0.47697 z"
           id="path3813" />
        <path
           style="color:#000000;font-style:normal;font-variant:normal;font-weight:bold;font-stretch:normal;font-size:10.5833px;line-height:1.25;font-family:'Segoe Script';-inkscape-font-specification:'Segoe Script, Bold';font-variant-ligatures:normal;font-variant-position:normal;font-variant-caps:normal;font-variant-numeric:normal;font-variant-alternates:normal;font-variant-east-asian:normal;font-feature-settings:normal;font-variation-settings:normal;text-indent:0;text-align:start;text-decoration:none;text-decoration-line:none;text-decoration-style:solid;text-decoration-color:#000000;letter-spacing:-1.32821px;word-spacing:normal;text-transform:none;writing-mode:lr-tb;direction:ltr;text-orientation:mixed;dominant-baseline:auto;baseline-shift:baseline;text-anchor:start;white-space:normal;shape-padding:0;shape-margin:0;inline-size:0;clip-rule:nonzero;display:inline;overflow:visible;visibility:visible;isolation:auto;mix-blend-mode:normal;color-interpolation:sRGB;color-interpolation-filters:linearRGB;solid-color:#000000;solid-opacity:1;vector-effect:none;fill:#810a1a;fill-opacity:1;fill-rule:nonzero;stroke:none;stroke-width:2.02564;stroke-linecap:butt;stroke-linejoin:miter;stroke-miterlimit:4;stroke-dasharray:none;stroke-dashoffset:0;stroke-opacity:1;paint-order:stroke markers fill;color-rendering:auto;image-rendering:auto;shape-rendering:auto;text-rendering:auto;enable-background:accumulate;stop-color:#000000"
           d="m 29.027006,195.46287 c 0.341417,1.5355 -0.119233,3.11275 -0.817334,4.47866 0.09764,0.8369 -1.156883,1.54706 -1.440565,0.5637 0.202825,-0.8632 0.817684,-1.59177 0.916952,-2.49519 0.144133,-0.84937 0.406509,-1.73853 0.08492,-2.58027 -0.390027,-1.56191 -1.271716,-2.97289 -2.356607,-4.14568 -0.474612,-0.43196 -1.912858,-1.03278 -0.801022,-1.65028 0.94622,-0.16628 1.554583,0.8347 2.178687,1.3831 0.75627,0.71571 1.151712,1.70209 1.651919,2.59454 0.277951,0.5877 0.452004,1.21663 0.583049,1.85142 z"
           id="path3819" />
      </g>
    </g>
    <g
       aria-label="Mach ein Foto!"
       transform="matrix(3.6500209,0,0,3.6500209,297.08685,-656.3946)"
       id="text3871"
       style="font-style:normal;font-variant:normal;font-weight:bold;font-stretch:condensed;font-size:10.5833px;line-height:1.25;font-family:'Myriad Pro';-inkscape-font-specification:'Myriad Pro, Bold Condensed';font-variant-ligatures:normal;font-variant-caps:normal;font-variant-numeric:normal;font-variant-east-asian:normal;white-space:pre;shape-inside:url(#rect3873);fill:#003056;fill-opacity:1;stroke:none">
      <path
         d="m -89.588303,253.72718 h 1.238246 l -0.433915,-7.13314 h -1.460495 l -0.571498,2.58233 c -0.179917,0.89958 -0.338666,1.70391 -0.444499,2.49765 h -0.03175 c -0.127,-0.80433 -0.306916,-1.59807 -0.497415,-2.49765 l -0.571498,-2.58233 h -1.471079 l -0.507998,7.13314 h 1.185329 l 0.127,-2.47649 c 0.03175,-0.70908 0.08467,-1.60866 0.105833,-2.38124 h 0.02117 c 0.116416,0.77258 0.306915,1.66158 0.444498,2.23308 l 0.592665,2.50824 h 0.973663 l 0.624415,-2.55058 c 0.137583,-0.55033 0.328082,-1.42874 0.455082,-2.19074 h 0.02117 c -0.01058,0.762 0.03175,1.68274 0.07408,2.36008 z"
         style="font-style:normal;font-variant:normal;font-weight:bold;font-stretch:condensed;font-size:10.5833px;font-family:'Myriad Pro';-inkscape-font-specification:'Myriad Pro, Bold Condensed';font-variant-ligatures:normal;font-variant-caps:normal;font-variant-numeric:normal;font-variant-east-asian:normal;fill:#003056;fill-opacity:1"
         id="path883" />
      <path
         d="m -83.92625,250.62628 c 0,-1.05833 -0.253999,-2.159 -1.830911,-2.159 -0.730247,0 -1.322912,0.23284 -1.619245,0.39159 l 0.254,0.94191 c 0.317499,-0.1905 0.645581,-0.30692 1.05833,-0.30692 0.497415,0 0.730247,0.29634 0.730247,0.70909 v 0.11641 c -1.174746,0.0106 -2.370659,0.56092 -2.370659,1.92616 0,0.91017 0.582082,1.56633 1.365246,1.56633 0.455082,0 0.86783,-0.20108 1.142996,-0.59266 h 0.03175 l 0.07408,0.50799 h 1.238246 c -0.05292,-0.34924 -0.07408,-0.77258 -0.07408,-1.18533 z m -1.365245,1.48166 c 0,0.0952 -0.01058,0.16933 -0.03175,0.24342 -0.09525,0.30691 -0.338666,0.44449 -0.571499,0.44449 -0.211666,0 -0.497415,-0.1905 -0.497415,-0.69849 0,-0.71967 0.645582,-0.87842 1.100664,-0.889 z"
         style="font-style:normal;font-variant:normal;font-weight:bold;font-stretch:condensed;font-size:10.5833px;font-family:'Myriad Pro';-inkscape-font-specification:'Myriad Pro, Bold Condensed';font-variant-ligatures:normal;font-variant-caps:normal;font-variant-numeric:normal;font-variant-east-asian:normal;fill:#003056;fill-opacity:1"
         id="path885" />
      <path
         d="m -80.200939,252.55244 c -0.148166,0.0741 -0.317499,0.10583 -0.518581,0.10583 -0.645582,0 -1.037164,-0.5715 -1.037164,-1.50283 0,-0.89958 0.391582,-1.53458 1.05833,-1.53458 0.232833,0 0.402166,0.0529 0.518582,0.0952 l 0.179916,-1.09008 c -0.137583,-0.0635 -0.433915,-0.13758 -0.761998,-0.13758 -1.428745,0 -2.370659,1.11125 -2.370659,2.70933 0,1.68274 0.857248,2.5929 2.169577,2.5929 0.391582,0 0.740831,-0.0847 0.878414,-0.14816 z"
         style="font-style:normal;font-variant:normal;font-weight:bold;font-stretch:condensed;font-size:10.5833px;font-family:'Myriad Pro';-inkscape-font-specification:'Myriad Pro, Bold Condensed';font-variant-ligatures:normal;font-variant-caps:normal;font-variant-numeric:normal;font-variant-east-asian:normal;fill:#003056;fill-opacity:1"
         id="path887" />
      <path
         d="m -79.534192,253.72718 h 1.386412 v -3.21732 c 0,-0.11642 0.03175,-0.30691 0.05292,-0.39158 0.105833,-0.34925 0.306915,-0.48683 0.539748,-0.48683 0.412749,0 0.507998,0.4445 0.507998,0.95249 v 3.14324 h 1.386413 v -3.14324 c 0,-1.31233 -0.370416,-2.11666 -1.322913,-2.11666 -0.253999,0 -0.497415,0.0741 -0.698498,0.1905 -0.169332,0.11642 -0.317499,0.254 -0.444498,0.43392 h -0.02117 v -2.68816 h -1.386412 z"
         style="font-style:normal;font-variant:normal;font-weight:bold;font-stretch:condensed;font-size:10.5833px;font-family:'Myriad Pro';-inkscape-font-specification:'Myriad Pro, Bold Condensed';font-variant-ligatures:normal;font-variant-caps:normal;font-variant-numeric:normal;font-variant-east-asian:normal;fill:#003056;fill-opacity:1"
         id="path889" />
      <path
         d="m -69.395424,251.63169 c 0.02117,-0.14817 0.04233,-0.34925 0.04233,-0.71966 0,-1.57692 -0.645581,-2.45533 -1.756828,-2.45533 -1.164163,0 -2.074327,1.03716 -2.074327,2.78341 0,1.61924 0.772581,2.55057 2.190743,2.55057 0.518582,0 1.05833,-0.0953 1.407579,-0.23283 l -0.179916,-0.99483 c -0.253999,0.0847 -0.592665,0.16933 -0.984247,0.16933 -0.603248,0 -1.079496,-0.29633 -1.09008,-1.10066 z m -2.444743,-0.97366 c 0.01058,-0.51858 0.201083,-1.18533 0.645582,-1.18533 0.412748,0 0.582081,0.51858 0.582081,1.18533 z"
         style="font-style:normal;font-variant:normal;font-weight:bold;font-stretch:condensed;font-size:10.5833px;font-family:'Myriad Pro';-inkscape-font-specification:'Myriad Pro, Bold Condensed';font-variant-ligatures:normal;font-variant-caps:normal;font-variant-numeric:normal;font-variant-east-asian:normal;fill:#003056;fill-opacity:1"
         id="path891" />
      <path
         d="m -67.183528,253.72718 v -5.17523 h -1.386412 v 5.17523 z m -0.709081,-7.30247 c -0.380999,0 -0.719665,0.29633 -0.709081,0.76199 -0.01058,0.4445 0.306915,0.75142 0.687914,0.75142 0.423332,0 0.740831,-0.30692 0.730248,-0.75142 0,-0.46566 -0.306916,-0.76199 -0.709081,-0.76199 z"
         style="font-style:normal;font-variant:normal;font-weight:bold;font-stretch:condensed;font-size:10.5833px;font-family:'Myriad Pro';-inkscape-font-specification:'Myriad Pro, Bold Condensed';font-variant-ligatures:normal;font-variant-caps:normal;font-variant-numeric:normal;font-variant-east-asian:normal;fill:#003056;fill-opacity:1"
         id="path893" />
      <path
         d="m -66.209869,253.72718 h 1.386412 v -3.15382 c 0,-0.20108 0.03175,-0.37041 0.07408,-0.47625 0.09525,-0.30691 0.285749,-0.46566 0.518582,-0.46566 0.402165,0 0.507998,0.42333 0.507998,0.85724 v 3.23849 h 1.386412 v -3.32315 c 0,-1.15358 -0.391582,-1.93675 -1.375829,-1.93675 -0.539748,0 -0.984246,0.27517 -1.248829,0.67734 h -0.02117 l -0.07408,-0.59267 h -1.195912 c 0.02117,0.49742 0.04233,0.99483 0.04233,1.55575 z"
         style="font-style:normal;font-variant:normal;font-weight:bold;font-stretch:condensed;font-size:10.5833px;font-family:'Myriad Pro';-inkscape-font-specification:'Myriad Pro, Bold Condensed';font-variant-ligatures:normal;font-variant-caps:normal;font-variant-numeric:normal;font-variant-east-asian:normal;fill:#003056;fill-opacity:1"
         id="path895" />
      <path
         d="m -59.553008,253.72718 h 1.386412 v -2.94215 h 1.608662 v -1.15358 h -1.608662 v -1.83091 h 1.714495 v -1.2065 h -3.100907 z"
         style="font-style:normal;font-variant:normal;font-weight:bold;font-stretch:condensed;font-size:10.5833px;font-family:'Myriad Pro';-inkscape-font-specification:'Myriad Pro, Bold Condensed';font-variant-ligatures:normal;font-variant-caps:normal;font-variant-numeric:normal;font-variant-east-asian:normal;fill:#003056;fill-opacity:1"
         id="path897" />
      <path
         d="m -53.965046,248.4567 c -1.02658,0 -2.000244,0.83608 -2.000244,2.69874 0,1.68275 0.740831,2.65641 1.979077,2.65641 0.783165,0 1.979077,-0.52916 1.979077,-2.68816 0,-1.64041 -0.730247,-2.66699 -1.95791,-2.66699 z m -0.01058,1.05833 c 0.476248,0 0.592664,0.89958 0.592664,1.60866 0,0.762 -0.116416,1.62983 -0.571498,1.62983 -0.497415,0 -0.634998,-0.74083 -0.634998,-1.62983 0,-0.70908 0.105833,-1.60866 0.613832,-1.60866 z"
         style="font-style:normal;font-variant:normal;font-weight:bold;font-stretch:condensed;font-size:10.5833px;font-family:'Myriad Pro';-inkscape-font-specification:'Myriad Pro, Bold Condensed';font-variant-ligatures:normal;font-variant-caps:normal;font-variant-numeric:normal;font-variant-east-asian:normal;fill:#003056;fill-opacity:1"
         id="path899" />
      <path
         d="m -50.980556,247.64179 v 0.91016 h -0.613832 v 0.98425 h 0.613832 v 2.44474 c 0,0.81491 0.158749,1.2065 0.433915,1.48166 0.253999,0.23283 0.603248,0.32808 1.005413,0.32808 0.359833,0 0.656165,-0.0423 0.846664,-0.0953 l -0.01058,-1.07949 c -0.126999,0.0212 -0.232832,0.0318 -0.370415,0.0318 -0.264583,0 -0.518582,-0.14817 -0.518582,-0.75142 v -2.36007 h 1.015997 v -0.98425 h -1.015997 v -1.34408 z"
         style="font-style:normal;font-variant:normal;font-weight:bold;font-stretch:condensed;font-size:10.5833px;font-family:'Myriad Pro';-inkscape-font-specification:'Myriad Pro, Bold Condensed';font-variant-ligatures:normal;font-variant-caps:normal;font-variant-numeric:normal;font-variant-east-asian:normal;fill:#003056;fill-opacity:1"
         id="path901" />
      <path
         d="m -46.175758,248.4567 c -1.026581,0 -2.000244,0.83608 -2.000244,2.69874 0,1.68275 0.740831,2.65641 1.979077,2.65641 0.783164,0 1.979077,-0.52916 1.979077,-2.68816 0,-1.64041 -0.730248,-2.66699 -1.95791,-2.66699 z m -0.01058,1.05833 c 0.476249,0 0.592665,0.89958 0.592665,1.60866 0,0.762 -0.116416,1.62983 -0.571498,1.62983 -0.497415,0 -0.634998,-0.74083 -0.634998,-1.62983 0,-0.70908 0.105833,-1.60866 0.613831,-1.60866 z"
         style="font-style:normal;font-variant:normal;font-weight:bold;font-stretch:condensed;font-size:10.5833px;font-family:'Myriad Pro';-inkscape-font-specification:'Myriad Pro, Bold Condensed';font-variant-ligatures:normal;font-variant-caps:normal;font-variant-numeric:normal;font-variant-east-asian:normal;fill:#003056;fill-opacity:1"
         id="path903" />
      <path
         d="m -42.080022,251.40944 0.169333,-4.8154 h -1.513412 l 0.169332,4.8154 z m -0.592665,2.40241 c 0.497415,0 0.793747,-0.35983 0.793747,-0.84666 0,-0.51859 -0.338665,-0.85725 -0.793747,-0.85725 -0.433915,0 -0.793748,0.33866 -0.793748,0.85725 0,0.48683 0.349249,0.84666 0.793748,0.84666 z"
         style="font-style:normal;font-variant:normal;font-weight:bold;font-stretch:condensed;font-size:10.5833px;font-family:'Myriad Pro';-inkscape-font-specification:'Myriad Pro, Bold Condensed';font-variant-ligatures:normal;font-variant-caps:normal;font-variant-numeric:normal;font-variant-east-asian:normal;fill:#003056;fill-opacity:1"
         id="path905" />
    </g>
  </g>
</svg>
